<svg width="410" height="64" viewBox="0 0 410 64" xmlns="http://www.w3.org/2000/svg"><title>Slice 1</title><g fill="none"><path d="M30.327 31.165l20.311-11.687c4.452-3.06 5.565-9.46 2.504-13.913C50.36 1.67 45.073 0 40.622 2.226L5.286 22.54l25.041 8.626z" fill="#EA4335"/><path d="M45.63 61.496a9.975 9.975 0 0 0 10.016-10.018c0-3.617-1.947-6.956-5.008-8.626L15.303 22.54c-5.008-2.782-10.851-.835-13.634 3.896C-.835 31.165.556 37.009 5.286 39.79l35.336 20.313c1.39 1.113 3.06 1.392 5.008 1.392z" fill="#4285F4"/><path d="M80.687 61.496c1.67 0 3.617-.557 5.008-1.392l35.336-20.313-24.763-8.904-20.867 11.965c-4.73 2.783-6.4 8.905-3.617 13.635 1.947 3.34 5.286 5.009 8.903 5.009z" fill="#FBBC04"/><path d="M115.744 41.183a9.975 9.975 0 0 0 10.017-10.018c0-3.617-1.948-6.956-5.009-8.626L85.695 2.226C81.244-.834 74.845.278 71.784 4.73c-3.06 4.453-1.948 10.853 2.504 13.913.556.279.834.557 1.39.835l35.336 20.313c1.391.835 3.06 1.392 4.73 1.392z" fill="#0F9D58"/><path d="M165.548 51.478c-3.617-1.948-6.4-4.73-8.347-8.348-1.948-3.617-3.06-7.513-3.06-11.687 0-4.173 1.112-8.347 3.06-11.686 1.947-3.618 4.73-6.4 8.347-8.348 3.617-1.948 7.512-3.061 11.685-3.061 3.34 0 6.4.556 9.182 1.948 2.782 1.113 5.008 3.06 7.234 5.287l-3.895 3.617c-1.67-1.948-3.617-3.617-5.565-4.452-1.948-.835-4.173-1.391-6.956-1.391-3.338 0-6.12.834-8.903 2.226-2.782 1.39-4.73 3.617-6.4 6.4-1.669 2.782-2.503 5.843-2.503 9.46 0 3.618.834 6.679 2.504 9.461 1.669 2.783 3.617 5.009 6.399 6.4 2.782 1.392 5.565 2.226 8.903 2.226 5.287 0 10.017-2.226 13.634-6.678l3.895 3.618c-1.948 2.504-4.452 4.452-7.512 5.843-3.06 1.391-6.4 2.226-10.017 2.226-4.173-.278-8.068-1.113-11.685-3.06zm39.508.557c-2.504-1.392-4.451-3.618-5.842-6.122-1.392-2.504-1.948-5.287-1.948-8.348 0-3.06.556-5.843 1.948-8.348 1.39-2.504 3.338-4.452 5.842-6.121 2.505-1.67 5.287-2.226 8.347-2.226 3.06 0 5.843.834 8.347 2.226 2.504 1.391 4.452 3.617 5.843 6.121 1.391 2.505 1.948 5.287 1.948 8.348 0 3.061-.557 5.844-1.948 8.348-1.391 2.504-3.339 4.452-5.843 6.122-2.504 1.391-5.286 2.226-8.347 2.226-3.06 0-5.842-.557-8.347-2.226zm13.634-3.896c1.67-.835 3.06-2.226 3.895-4.174.835-1.948 1.391-3.895 1.391-6.4 0-2.504-.556-4.452-1.391-6.4-1.113-1.948-2.226-3.339-3.895-4.174-1.67-.834-3.339-1.391-5.287-1.391-1.947 0-3.617.557-5.564 1.391-1.67.835-3.06 2.226-4.174 4.174-1.113 1.948-1.39 3.896-1.39 6.4 0 2.505.556 4.452 1.39 6.4 1.113 1.948 2.226 3.34 4.174 4.174 1.947.835 3.617 1.391 5.564 1.391 1.948 0 3.617-.278 5.287-1.39zm21.424 4.174c-2.226-1.391-4.174-3.34-5.287-5.843-1.39-2.505-1.947-5.287-1.947-8.627 0-3.06.556-6.121 1.947-8.626 1.391-2.504 3.06-4.452 5.287-6.121 2.225-1.392 4.73-2.226 7.79-2.226 2.504 0 4.452.556 6.4 1.67 1.947 1.112 3.338 2.503 4.451 3.895h.278l-.278-4.174V9.183h5.286v44.243h-5.008v-4.73h-.278c-1.113 1.67-2.504 2.782-4.452 3.895-1.947 1.113-4.173 1.67-6.399 1.67-2.782 0-5.286-.557-7.79-1.948zm13.633-4.174c1.67-1.113 2.782-2.504 3.895-4.174.835-1.948 1.391-3.895 1.391-6.4 0-2.504-.556-4.452-1.39-6.4-.836-1.948-2.227-3.339-3.896-4.174-1.67-1.113-3.339-1.391-5.286-1.391a9.607 9.607 0 0 0-5.009 1.391c-1.669 1.113-2.782 2.505-3.895 4.174-.835 1.948-1.391 3.896-1.391 6.4 0 2.226.556 4.452 1.391 6.4.835 1.948 2.226 3.34 3.895 4.174 1.67 1.113 3.34 1.391 5.009 1.391 1.947 0 3.617-.278 5.286-1.39zm22.537 4.174c-2.504-1.391-4.174-3.34-5.565-5.843-1.391-2.505-1.948-5.287-1.948-8.627 0-3.06.557-5.843 1.948-8.347 1.391-2.505 3.06-4.73 5.286-6.122 2.226-1.391 5.009-2.226 8.07-2.226 3.06 0 5.842.556 8.068 1.948 2.226 1.391 3.895 3.339 5.286 5.843 1.113 2.504 1.948 5.287 1.948 8.348v1.67h-25.04c0 2.504.834 4.452 1.668 6.121 1.113 1.67 2.226 2.783 3.896 3.618 1.67.834 3.338 1.113 5.008 1.113 4.173 0 7.234-1.948 9.46-5.566l4.451 2.227c-1.39 2.504-3.06 4.452-5.564 6.121-2.504 1.67-5.287 2.226-8.347 2.226-3.617-.556-6.4-1.113-8.625-2.504zm16.972-18.087c0-1.391-.557-2.504-1.113-3.896-.557-1.39-1.67-2.504-3.06-3.339-1.392-.834-3.061-1.391-5.287-1.391-2.504 0-4.452.835-6.4 2.504-1.669 1.67-2.782 3.618-3.338 6.4h19.198v-.278zm10.573-25.043h5.286v44.243h-5.286zm15.302 43.965a9.026 9.026 0 0 1-4.173-3.618c-1.113-1.67-1.391-3.339-1.391-5.287 0-3.339 1.39-5.843 3.895-7.79 2.504-1.949 5.565-2.783 9.46-2.783 1.947 0 3.617.278 5.286.556 1.67.278 2.782.835 3.617 1.391v-2.226c0-2.226-.835-4.174-2.504-5.565-1.67-1.391-3.617-2.226-6.121-2.226-1.67 0-3.339.278-4.73 1.113-1.391.835-2.782 1.948-3.617 3.06l-3.895-3.06c1.113-1.948 3.06-3.34 5.008-4.452 1.948-1.113 4.73-1.67 7.234-1.67 4.173 0 7.79 1.113 10.016 3.34 2.504 2.226 3.617 5.286 3.617 9.182v20.035h-5.008v-4.452h-.278c-.835 1.391-2.226 2.782-4.174 3.895-1.947 1.113-3.895 1.67-6.12 1.67-2.226 0-4.174-.278-6.122-1.113zm11.686-4.73c1.391-.835 2.782-2.227 3.617-3.618a9.61 9.61 0 0 0 1.391-5.009c-1.113-.556-2.226-1.113-3.617-1.67-1.391-.278-3.06-.556-4.452-.556-2.782 0-5.008.557-6.399 1.67s-2.226 2.782-2.226 4.73c0 1.67.557 3.061 1.948 4.174 1.391 1.113 3.06 1.67 5.008 1.67 1.67 0 3.339-.557 4.73-1.392zm25.597 4.452c-1.947-1.113-3.338-2.505-4.173-3.896h-.278v4.73h-5.009V9.183h5.287V22.26l-.278 4.452h.278c.835-1.67 2.504-3.06 4.173-4.174 1.948-1.113 4.174-1.67 6.4-1.67 2.782 0 5.286.835 7.79 2.227 2.226 1.391 4.174 3.339 5.286 6.121 1.113 2.783 1.948 5.566 1.948 8.626 0 3.34-.556 6.122-1.948 8.627-1.39 2.504-3.06 4.452-5.286 5.843-2.226 1.391-4.73 2.226-7.79 2.226-2.226-.278-4.452-.835-6.4-1.67zm11.13-4.73c1.669-1.114 2.782-2.505 3.895-4.175.834-1.948 1.39-3.895 1.39-6.4 0-2.504-.556-4.452-1.39-6.4-.835-1.948-2.226-3.339-3.895-4.174-1.67-1.113-3.34-1.391-5.009-1.391-1.947 0-3.617.557-5.286 1.391-1.67 1.113-2.782 2.505-3.895 4.174-.835 1.948-1.391 3.896-1.391 6.4 0 2.505.556 4.452 1.39 6.4.835 1.948 2.227 3.34 3.896 4.174 1.67 1.113 3.339 1.391 5.286 1.391 1.67 0 3.34-.278 5.009-1.39zm17.806 3.895c-2.226-1.67-3.895-3.618-4.73-6.122l4.73-2.226c.835 1.948 1.948 3.34 3.617 4.452 1.67 1.113 3.34 1.67 5.009 1.67 1.947 0 3.617-.279 5.008-1.113 1.39-.835 2.226-1.948 2.226-3.34 0-1.39-.557-2.504-1.67-3.06-1.113-.835-2.782-1.392-5.286-1.948l-3.895-1.113c-2.505-.557-4.452-1.67-6.122-3.061-1.669-1.391-2.504-3.34-2.504-5.844 0-1.947.557-3.339 1.67-4.73 1.113-1.391 2.504-2.504 4.451-3.06 1.948-.836 3.896-1.114 5.843-1.114 2.783 0 5.287.557 7.513 1.67 2.225 1.113 3.617 2.782 4.73 5.008l-4.452 2.226c-1.391-2.782-3.895-4.173-7.512-4.173-1.67 0-3.34.278-4.452 1.113-1.391.834-1.948 1.947-1.948 3.06s.557 2.227 1.391 2.783c.835.557 2.226 1.391 4.174 1.67l4.452 1.113c3.06.834 5.564 1.947 6.955 3.617 1.67 1.67 2.226 3.34 2.226 5.565 0 1.948-.556 3.618-1.67 5.009-1.112 1.391-2.503 2.504-4.45 3.34-1.949.834-3.896 1.112-6.4 1.112-3.895-.278-6.678-.835-8.904-2.504z" fill="#676C72"/></g></svg>
