<svg id="Capa_1" enable-background="new 0 0 512 512" height="512" viewBox="0 0 512 512" width="512" xmlns="http://www.w3.org/2000/svg"><g><path d="m378.431 239.635-106.066-106.066 111.602-111.602c29.289-29.289 76.777-29.289 106.066 0 29.289 29.289 29.289 76.777 0 106.066z" fill="#00337a"/><path d="m490.033 128.033c29.289-29.289 29.289-76.777 0-106.066l-164.635 164.635 53.033 53.033z" fill="#2b0552"/><path d="m359.018 244.906-91.924-91.924-166.947 166.947 64.416 35.993 119.432-35.993z" fill="#f9f9f9"/><path d="m313.056 198.944-153.936 153.936 5.443 3.042 119.432-35.993 75.023-75.023z" fill="#e2dff4"/><path d="m100.147 319.929-28.128 28.128c-23.27 23.27-38.744 53.932-43.662 86.465l-23.028 32.24c-8.129 11.38-6.839 26.97 3.051 36.859 9.889 9.889 25.478 11.179 36.859 3.051l32.239-23.028c32.533-4.917 63.196-20.392 86.465-43.662l120.052-120.052h-183.848z" fill="#ff8e8e"/><path d="m192.071 319.929-183.691 183.691c9.889 9.889 25.478 11.179 36.859 3.051l32.239-23.028c32.533-4.917 63.196-20.392 86.465-43.662l120.052-120.052z" fill="#ff405c"/><path d="m350.754 288.526-127.28-127.28c-13.668-13.668-13.668-35.829 0-49.497 13.668-13.668 35.829-13.668 49.497 0l127.279 127.279c13.668 13.668 13.668 35.829 0 49.497-13.667 13.669-35.828 13.669-49.496.001z" fill="#145481"/><path d="m400.251 239.028-63.64-63.64-49.497 49.497 63.64 63.64c13.668 13.668 35.829 13.668 49.497 0 13.668-13.668 13.668-35.828 0-49.497z" fill="#00337a"/></g></svg>